<svg width="1496" height="293" viewBox="0 0 1496 293" fill="none" xmlns="http://www.w3.org/2000/svg">
<g clip-path="url(#clip0)">
<path d="M0 0H267.134V193.576H97.2876L78.9361 226.551L59.6569 193.576H0V0Z" fill="url(#paint0_linear)"/>
<path d="M3.37598 3.7149H262.888V190.851H94.4512L78.8513 224.455L61.3293 190.851H3.37598V3.7149Z" fill="#F5F5F5"/>
<path opacity="0.3" d="M36.2036 68.0768L229.543 68.0768V59.8041L36.2036 59.8041V68.0768Z" fill="#7159C1"/>
<path opacity="0.3" d="M36.2036 86.1697L229.543 86.1697V77.897L36.2036 77.897V86.1697Z" fill="#7159C1"/>
<path opacity="0.3" d="M36.2036 104.262L229.543 104.262V95.9897L36.2036 95.9897V104.262Z" fill="#7159C1"/>
<path opacity="0.3" d="M36.2036 122.355L229.543 122.355V114.083L36.2036 114.083V122.355Z" fill="#7159C1"/>
<path d="M394.68 66.895H130.668V260.092L301.027 259.998L317.082 293L335.719 260.092H394.68V66.895Z" fill="url(#paint1_linear)"/>
<path d="M392.642 69.8829H133.13V257.019H301.567L317.167 290.623L334.689 257.019H392.642V69.8829Z" fill="white"/>
<path d="M215.843 182.32C226.264 182.32 234.712 173.872 234.712 163.451C234.712 153.03 226.264 144.582 215.843 144.582C205.422 144.582 196.974 153.03 196.974 163.451C196.974 173.872 205.422 182.32 215.843 182.32Z" fill="url(#paint2_linear)"/>
<path d="M262.888 182.32C273.309 182.32 281.757 173.872 281.757 163.451C281.757 153.03 273.309 144.582 262.888 144.582C252.467 144.582 244.019 153.03 244.019 163.451C244.019 173.872 252.467 182.32 262.888 182.32Z" fill="url(#paint3_linear)"/>
<path d="M309.929 182.32C320.35 182.32 328.798 173.872 328.798 163.451C328.798 153.03 320.35 144.582 309.929 144.582C299.508 144.582 291.06 153.03 291.06 163.451C291.06 173.872 299.508 182.32 309.929 182.32Z" fill="url(#paint4_linear)"/>
<path d="M215.843 180.509C225.264 180.509 232.902 172.872 232.902 163.451C232.902 154.03 225.264 146.393 215.843 146.393C206.422 146.393 198.785 154.03 198.785 163.451C198.785 172.872 206.422 180.509 215.843 180.509Z" fill="#7159C1"/>
<path opacity="0.6" d="M262.888 180.509C272.309 180.509 279.947 172.872 279.947 163.451C279.947 154.03 272.309 146.393 262.888 146.393C253.467 146.393 245.83 154.03 245.83 163.451C245.83 172.872 253.467 180.509 262.888 180.509Z" fill="#7159C1"/>
<path opacity="0.3" d="M309.929 180.509C319.35 180.509 326.987 172.872 326.987 163.451C326.987 154.03 319.35 146.393 309.929 146.393C300.508 146.393 292.871 154.03 292.871 163.451C292.871 172.872 300.508 180.509 309.929 180.509Z" fill="#7159C1"/>
</g>
<path d="M564.5 198H537.5V155.25H500V198H473V93H500V134.25H537.5V93H564.5V198ZM611.82 135.75C607.82 135.75 605.82 137.75 605.82 141.75V150H631.32V141.75C631.32 137.75 629.32 135.75 625.32 135.75H611.82ZM654.57 196.5C635.27 198.5 617.77 199.5 602.07 199.5C595.27 199.5 589.82 197.45 585.72 193.35C581.62 189.25 579.57 183.8 579.57 177V141C579.57 133.5 581.67 127.65 585.87 123.45C590.17 119.15 596.07 117 603.57 117H633.57C641.07 117 646.92 119.15 651.12 123.45C655.42 127.65 657.57 133.5 657.57 141V168.75H605.82V174.75C605.82 176.25 606.32 177.5 607.32 178.5C608.32 179.5 609.57 180 611.07 180C620.97 180 635.47 179.25 654.57 177.75V196.5ZM711.512 198C704.812 199 698.412 199.5 692.312 199.5C686.312 199.5 681.262 197.45 677.162 193.35C673.062 189.25 671.012 183.8 671.012 177V93H697.262V173.25C697.262 174.75 697.762 176 698.762 177C699.762 178 701.012 178.5 702.512 178.5H711.512V198ZM762.488 198C755.788 199 749.388 199.5 743.288 199.5C737.288 199.5 732.238 197.45 728.138 193.35C724.038 189.25 721.988 183.8 721.988 177V93H748.238V173.25C748.238 174.75 748.738 176 749.738 177C750.738 178 751.988 178.5 753.488 178.5H762.488V198ZM853.965 175.5C853.965 183 851.815 188.9 847.515 193.2C843.315 197.4 837.465 199.5 829.965 199.5H795.465C787.965 199.5 782.065 197.4 777.765 193.2C773.565 188.9 771.465 183 771.465 175.5V141C771.465 133.5 773.565 127.65 777.765 123.45C782.065 119.15 787.965 117 795.465 117H829.965C837.465 117 843.315 119.15 847.515 123.45C851.815 127.65 853.965 133.5 853.965 141V175.5ZM827.715 143.25C827.715 139.25 825.715 137.25 821.715 137.25H803.715C799.715 137.25 797.715 139.25 797.715 143.25V173.25C797.715 177.25 799.715 179.25 803.715 179.25H821.715C825.715 179.25 827.715 177.25 827.715 173.25V143.25ZM1003.92 195.75C980.518 198.25 959.018 199.5 939.418 199.5C929.618 199.5 922.418 197.2 917.818 192.6C913.218 188 910.918 180.8 910.918 171V123C910.918 112.5 913.268 104.9 917.968 100.2C922.768 95.4 930.418 93 940.918 93H994.918V114H946.918C940.918 114 937.918 117 937.918 123V171C937.918 173.3 938.568 175.15 939.868 176.55C941.268 177.85 943.118 178.5 945.418 178.5C956.918 178.5 967.418 178.25 976.918 177.75V156H957.418V138H1003.92V195.75ZM1063.2 140.25C1056.9 140.25 1050.4 141.75 1043.7 144.75V198H1017.45V118.5H1040.7L1042.2 128.25C1050.8 120.75 1059.8 117 1069.2 117H1075.95V140.25H1063.2ZM1111.94 178.5C1117.24 178.5 1123.24 177.5 1129.94 175.5V166.5H1108.19C1106.69 166.5 1105.44 167 1104.44 168C1103.44 169 1102.94 170.25 1102.94 171.75V173.25C1102.94 174.75 1103.44 176 1104.44 177C1105.44 178 1106.69 178.5 1108.19 178.5H1111.94ZM1084.19 120C1102.49 118 1118.99 117 1133.69 117C1140.49 117 1145.94 119.05 1150.04 123.15C1154.14 127.25 1156.19 132.7 1156.19 139.5V198H1132.94L1131.44 190.5C1126.74 193.6 1121.89 195.9 1116.89 197.4C1111.99 198.8 1107.84 199.5 1104.44 199.5H1099.19C1092.39 199.5 1086.94 197.45 1082.84 193.35C1078.74 189.25 1076.69 183.8 1076.69 177V170.25C1076.69 163.45 1078.74 158 1082.84 153.9C1086.94 149.8 1092.39 147.75 1099.19 147.75H1129.94V141.75C1129.94 140.25 1129.44 139 1128.44 138C1127.44 137 1126.19 136.5 1124.69 136.5C1118.19 136.5 1110.99 136.8 1103.09 137.4C1095.29 138 1088.99 138.45 1084.19 138.75V120ZM1213.89 138.75C1208.59 138.75 1202.59 139.75 1195.89 141.75V177.75H1218.39C1222.39 177.75 1224.39 175.75 1224.39 171.75V144C1224.39 142.5 1223.89 141.25 1222.89 140.25C1221.89 139.25 1220.64 138.75 1219.14 138.75H1213.89ZM1195.89 198V223.5H1169.64V118.5H1192.89L1194.39 126C1199.09 122.9 1203.89 120.65 1208.79 119.25C1213.79 117.75 1217.99 117 1221.39 117H1228.14C1234.94 117 1240.39 119.05 1244.49 123.15C1248.59 127.25 1250.64 132.7 1250.64 139.5V174C1250.64 181.5 1248.49 187.4 1244.19 191.7C1239.99 195.9 1234.14 198 1226.64 198H1195.89ZM1290.38 120C1300.08 118 1308.58 117 1315.88 117H1322.63C1329.43 117 1334.88 119.05 1338.98 123.15C1343.08 127.25 1345.13 132.7 1345.13 139.5V198H1318.88V142.5C1318.88 141 1318.38 139.75 1317.38 138.75C1316.38 137.75 1315.13 137.25 1313.63 137.25H1308.38C1304.58 137.25 1301.08 137.45 1297.88 137.85C1294.78 138.25 1292.28 138.55 1290.38 138.75V198H1264.13V93H1290.38V120ZM1392.36 179.25C1398.66 179.25 1404.66 178.75 1410.36 177.75V138.75H1389.36C1385.36 138.75 1383.36 140.75 1383.36 144.75V174C1383.36 175.5 1383.86 176.75 1384.86 177.75C1385.86 178.75 1387.11 179.25 1388.61 179.25H1392.36ZM1410.36 196.5C1400.66 198.5 1392.16 199.5 1384.86 199.5H1379.61C1372.81 199.5 1367.36 197.45 1363.26 193.35C1359.16 189.25 1357.11 183.8 1357.11 177V142.5C1357.11 135 1359.21 129.15 1363.41 124.95C1367.71 120.65 1373.61 118.5 1381.11 118.5H1436.61V223.5H1410.36V196.5ZM1492.13 198C1485.43 199 1479.03 199.5 1472.93 199.5C1466.93 199.5 1461.88 197.45 1457.78 193.35C1453.68 189.25 1451.63 183.8 1451.63 177V93H1477.88V173.25C1477.88 174.75 1478.38 176 1479.38 177C1480.38 178 1481.63 178.5 1483.13 178.5H1492.13V198Z" fill="#7159C1"/>
<defs>
<linearGradient id="paint0_linear" x1="133.567" y1="226.551" x2="133.567" y2="0" gradientUnits="userSpaceOnUse">
<stop stop-color="#808080" stop-opacity="0.25"/>
<stop offset="0.54" stop-color="#808080" stop-opacity="0.12"/>
<stop offset="1" stop-color="#808080" stop-opacity="0.1"/>
</linearGradient>
<linearGradient id="paint1_linear" x1="155634" y1="148618" x2="155634" y2="33982.7" gradientUnits="userSpaceOnUse">
<stop stop-color="#808080" stop-opacity="0.25"/>
<stop offset="0.54" stop-color="#808080" stop-opacity="0.12"/>
<stop offset="1" stop-color="#808080" stop-opacity="0.1"/>
</linearGradient>
<linearGradient id="paint2_linear" x1="18461.6" y1="15572.5" x2="18461.6" y2="12379.1" gradientUnits="userSpaceOnUse">
<stop stop-color="#808080" stop-opacity="0.25"/>
<stop offset="0.54" stop-color="#808080" stop-opacity="0.12"/>
<stop offset="1" stop-color="#808080" stop-opacity="0.1"/>
</linearGradient>
<linearGradient id="paint3_linear" x1="22489.6" y1="15572.5" x2="22489.6" y2="12379.1" gradientUnits="userSpaceOnUse">
<stop stop-color="#808080" stop-opacity="0.25"/>
<stop offset="0.54" stop-color="#808080" stop-opacity="0.12"/>
<stop offset="1" stop-color="#808080" stop-opacity="0.1"/>
</linearGradient>
<linearGradient id="paint4_linear" x1="26517.3" y1="15572.5" x2="26517.3" y2="12379.1" gradientUnits="userSpaceOnUse">
<stop stop-color="#808080" stop-opacity="0.25"/>
<stop offset="0.54" stop-color="#808080" stop-opacity="0.12"/>
<stop offset="1" stop-color="#808080" stop-opacity="0.1"/>
</linearGradient>
<clipPath id="clip0">
<rect width="394.68" height="293" fill="white"/>
</clipPath>
</defs>
</svg>
